<svg width="22.000000" height="27.000000" viewBox="0 0 22 27" fill="none" xmlns="http://www.w3.org/2000/svg" xmlns:xlink="http://www.w3.org/1999/xlink">
	<desc>
			Created with Pixso.
	</desc>
	<defs>
		<filter id="filter_201_131_dd" x="0.000000" y="18.403564" width="21.664062" height="7.596466" filterUnits="userSpaceOnUse" color-interpolation-filters="sRGB">
			<feFlood flood-opacity="0" result="BackgroundImageFix"/>
			<feBlend mode="normal" in="SourceGraphic" in2="BackgroundImageFix" result="shape"/>
			<feColorMatrix in="SourceAlpha" type="matrix" values="0 0 0 0 0 0 0 0 0 0 0 0 0 0 0 0 0 0 127 0" result="hardAlpha"/>
			<feOffset dx="0" dy="1"/>
			<feGaussianBlur stdDeviation="0.333333"/>
			<feComposite in2="hardAlpha" operator="arithmetic" k2="-1" k3="1"/>
			<feColorMatrix type="matrix" values="0 0 0 0 0 0 0 0 0 0 0 0 0 0 0 0 0 0 0.13 0"/>
			<feBlend mode="normal" in2="shape" result="effect_innerShadow_1"/>
		</filter>
		<filter id="filter_201_132_dd" x="0.001953" y="0.000000" width="21.702637" height="21.648804" filterUnits="userSpaceOnUse" color-interpolation-filters="sRGB">
			<feFlood flood-opacity="0" result="BackgroundImageFix"/>
			<feBlend mode="normal" in="SourceGraphic" in2="BackgroundImageFix" result="shape"/>
			<feColorMatrix in="SourceAlpha" type="matrix" values="0 0 0 0 0 0 0 0 0 0 0 0 0 0 0 0 0 0 127 0" result="hardAlpha"/>
			<feOffset dx="0" dy="1"/>
			<feGaussianBlur stdDeviation="0.333333"/>
			<feComposite in2="hardAlpha" operator="arithmetic" k2="-1" k3="1"/>
			<feColorMatrix type="matrix" values="0 0 0 0 0 0 0 0 0 0 0 0 0 0 0 0 0 0 0.13 0"/>
			<feBlend mode="normal" in2="shape" result="effect_innerShadow_1"/>
		</filter>
	</defs>
	<g filter="url(#filter_201_131_dd)">
		<path id="Vector" d="M21.03 18.48C20.83 18.4 20.62 18.38 20.41 18.42C20.2 18.46 20.01 18.56 19.85 18.71L19.72 18.84C18.55 20.03 17.16 20.97 15.62 21.62C14.08 22.26 12.43 22.59 10.77 22.59C9.1 22.57 7.45 22.21 5.92 21.55C4.39 20.89 3.01 19.93 1.85 18.73C1.71 18.57 1.51 18.46 1.3 18.42C1.08 18.38 0.86 18.4 0.66 18.49C0.46 18.57 0.28 18.71 0.16 18.9C0.04 19.09 -0.02 19.31 0 19.53L0 24.95C0 25.23 0.11 25.5 0.3 25.69C0.5 25.89 0.76 26 1.04 26L20.61 26C20.89 26 21.16 25.89 21.35 25.69C21.55 25.5 21.66 25.23 21.66 24.95L21.66 19.48C21.67 19.27 21.61 19.06 21.5 18.88C21.39 18.7 21.23 18.56 21.03 18.48Z" fill="#E9ECED" fill-opacity="1.000000" fill-rule="nonzero"/>
	</g>
	<g filter="url(#filter_201_132_dd)">
		<path id="Vector" d="M10.85 0C8.7 0 6.6 0.63 4.82 1.82C3.04 3.01 1.64 4.7 0.82 6.68C0 8.65 -0.21 10.83 0.21 12.93C0.62 15.03 1.66 16.96 3.18 18.47C4.69 19.99 6.63 21.02 8.73 21.44C10.84 21.85 13.02 21.64 15 20.82C16.98 20 18.68 18.61 19.87 16.83C21.06 15.05 21.7 12.96 21.7 10.82C21.69 7.95 20.55 5.2 18.52 3.17C16.48 1.14 13.72 0 10.85 0Z" fill="#E9ECED" fill-opacity="1.000000" fill-rule="nonzero"/>
	</g>
</svg>
