<svg width="26.000000" height="26.000000" viewBox="0 0 26 26" fill="none" xmlns="http://www.w3.org/2000/svg" xmlns:xlink="http://www.w3.org/1999/xlink">
	<desc>
			Created with Pixso.
	</desc>
	<defs>
		<filter id="filter_201_110_dd" x="0.000000" y="0.000000" width="26.000000" height="26.000000" filterUnits="userSpaceOnUse" color-interpolation-filters="sRGB">
			<feFlood flood-opacity="0" result="BackgroundImageFix"/>
			<feBlend mode="normal" in="SourceGraphic" in2="BackgroundImageFix" result="shape"/>
			<feColorMatrix in="SourceAlpha" type="matrix" values="0 0 0 0 0 0 0 0 0 0 0 0 0 0 0 0 0 0 127 0" result="hardAlpha"/>
			<feOffset dx="0" dy="1"/>
			<feGaussianBlur stdDeviation="0.333333"/>
			<feComposite in2="hardAlpha" operator="arithmetic" k2="-1" k3="1"/>
			<feColorMatrix type="matrix" values="0 0 0 0 0 0 0 0 0 0 0 0 0 0 0 0 0 0 0.13 0"/>
			<feBlend mode="normal" in2="shape" result="effect_innerShadow_1"/>
		</filter>
	</defs>
	<g filter="url(#filter_201_110_dd)">
		<path id="Vector" d="M18.54 4.68C18.72 4.06 18.52 2.54 19.73 1.53C20.93 0.53 22.81 0.65 23.94 1.71C25.07 2.77 25.25 4.75 23.91 6.06C22.58 7.37 21.96 6.64 21.22 7.35C20.47 8.06 20.6 8.63 21.06 9.06C21.52 9.49 26.12 14.2 25.99 14.5C25.86 14.8 22.73 18.28 22.22 18.53C21.7 18.78 20.8 18.76 20.62 17.93C20.44 17.1 20.75 15.43 19.47 15C18.18 14.58 17.62 14.93 16.36 16.24C15.1 17.55 14.54 18.98 15.56 19.71C16.59 20.44 17.88 20.14 18.39 21C18.9 21.86 18.13 22.63 16.77 23.87C15.41 25.1 14.36 26.11 14.18 25.98C14 25.86 10.09 21.8 9.71 21.38C9.32 20.95 8.58 20.57 7.86 21.22C7.14 21.88 7.01 24.02 3.98 24.02C0.95 24.02 0.59 20.8 1.67 19.46C2.75 18.13 5.13 18 5.19 17.1C5.21 16.68 3.9 15.56 2.72 14.35C1.34 12.93 0.05 11.43 0 11.25C-0.1 10.93 2.87 8.06 3.44 7.65C4 7.25 4.65 7.5 4.95 7.83C5.26 8.16 5.34 9.16 5.6 9.74C5.85 10.32 7.06 12.84 9.96 9.97C12.84 7.12 10.12 5.89 9.19 5.64C8.27 5.38 7.6 5.3 7.34 4.38C7.14 3.65 8.27 2.79 9.45 1.68C10.63 0.57 11.32 0 11.63 0C11.94 0 16.08 4.35 16.62 4.85C17.16 5.36 17.49 5.49 17.88 5.38C18.26 5.28 18.47 4.96 18.54 4.68Z" fill="#E9ECED" fill-opacity="1.000000" fill-rule="nonzero"/>
	</g>
</svg>
